PathFileType	4	(X/Y/Z)	C:/Users/opensim2020/Desktop/walking_exp_matlab/subject06_walking23_straight_04.trc																																																																																																																																					
DataRate	CameraRate	NumFrames	NumMarkers	Units	OrigDataRate	OrigDataStartFrame	OrigNumFrames																																																																																																																																	
100	100	7	45	mm	100	2356	145																																																																																																																																	
Frame#	Time	LFHD			RFHD			LBHD			RBHD			C7			T10			CLAV			STRN			RBAK			LSHO			LUPA			LELB			LFRM			LWRA			LWRB			LFIN			RSHO			RUPA			RELB			RFRM			RWRA			RWRB			RFIN			LASI			RASI			LPSI			RPSI			LTHI			LKNE			LTIB			LANK			LHEE			LTOE			RTHI			RKNE			RTIB			RANK			RHEE			RTOE			*39			*40			*41			*42			*43			*44		
		X1	Y1	Z1	X2	Y2	Z2	X3	Y3	Z3	X4	Y4	Z4	X5	Y5	Z5	X6	Y6	Z6	X7	Y7	Z7	X8	Y8	Z8	X9	Y9	Z9	X10	Y10	Z10	X11	Y11	Z11	X12	Y12	Z12	X13	Y13	Z13	X14	Y14	Z14	X15	Y15	Z15	X16	Y16	Z16	X17	Y17	Z17	X18	Y18	Z18	X19	Y19	Z19	X20	Y20	Z20	X21	Y21	Z21	X22	Y22	Z22	X23	Y23	Z23	X24	Y24	Z24	X25	Y25	Z25	X26	Y26	Z26	X27	Y27	Z27	X28	Y28	Z28	X29	Y29	Z29	X30	Y30	Z30	X31	Y31	Z31	X32	Y32	Z32	X33	Y33	Z33	X34	Y34	Z34	X35	Y35	Z35	X36	Y36	Z36	X37	Y37	Z37	X38	Y38	Z38	X39	Y39	Z39	X40	Y40	Z40	X41	Y41	Z41	X42	Y42	Z42	X43	Y43	Z43	X44	Y44	Z44	X45	Y45	Z45
																																																																																																																																								
91	0.9	391.32013	1665.80225	912.67896	393.67206	1658.3114	1044.21924	259.34	1609.28516	916.27161	263.43878	1606.90405	1045.63672	263.80551	1452.98975	974.8125	235.2225	1124.26868	990.07861	375.48239	1377.21655	975.41217	416.04337	1201.9823	970.51807	193.48068	1283.80139	1056.23779	308.83926	1408.51501	816.2984	293.02887	1210.01746	742.75677	286.06445	1097.56873	730.52704	349.46173	961.71381	709.23047	448.75592	881.19287	751.88239	393.67511	851.28363	718.33228	464.42017	795.79584	714.97552	326.59415	1413.51355	1135.90076	263.133	1228.84924	1232.15723	256.39362	1108.81909	1254.44177	270.17719	991.83118	1282.34436	336.66284	853.54559	1264.95862	279.01459	855.65527	1300.82117	316.81268	780.85242	1310.47522	409.63995	963.23511	879.83545	415.62906	974.18683	1099.24573	252.51611	988.72119	911.48889	263.81128	998.5072	1079.35083	395.16626	647.34991	830.19598	437.72159	490.5878	851.76788	265.95569	316.44397	852.18915	145.61807	192.20404	883.90491	105.22053	206.12692	929.95868	226.48772	72.81127	885.24518	376.55811	634.20435	1143.21265	388.24377	510.37436	1111.07007	325.37241	248.5143	1096.27979	298.46744	68.90621	1036.53247	257.54123	48.02977	991.09729	450.8248	31.24839	1042.35693	291.70673	1703.85681	972.68359	NaN	NaN	NaN	NaN	NaN	NaN	NaN	NaN	NaN	NaN	NaN	NaN	NaN	NaN	NaN
92	0.91	403.55685	1666.14307	912.4812	406.08603	1659.03052	1044.01404	271.40384	1610.00464	916.53882	276.17419	1607.73792	1045.24951	276.01675	1453.49426	975.27844	247.04073	1124.98633	990.97437	387.49988	1377.82629	975.92621	428.0285	1202.52771	971.55011	205.62283	1284.62952	1057.54321	320.59473	1408.80774	816.85663	303.69208	1210.25867	743.78351	295.60379	1097.85229	731.67682	354.60275	959.53827	710.40924	450.78415	874.76031	752.11151	394.18765	847.32544	718.85028	462.07132	788.4054	715.40289	338.87903	1414.63843	1136.37537	276.71411	1229.78638	1233.23279	270.90088	1109.89221	1255.69714	287.90588	993.41138	1283.41858	358.10342	857.19061	1265.23877	300.90067	857.57428	1301.4906	341.14102	783.97827	1310.7002	422.40649	964.53564	881.37811	426.47214	973.98541	1100.72632	264.84528	989.82941	911.77325	275.08078	998.8949	1079.8186	411.5795	649.6236	830.5553	456.90665	493.69034	852.76678	291.07037	313.5607	853.6626	175.79703	184.46742	885.31866	135.04085	196.14244	931.53723	262.61728	69.82837	885.07977	383.40051	634.0108	1143.25	392.76117	509.75079	1111.89697	327.1922	248.58694	1096.27869	298.78244	69.24057	1036.28125	258.53409	48.15248	990.79187	451.03006	31.14498	1042.43982	304.02414	1704.55823	972.42664	NaN	NaN	NaN	NaN	NaN	NaN	NaN	NaN	NaN	NaN	NaN	NaN	NaN	NaN	NaN
93	0.92	415.75653	1666.23047	912.21332	418.57935	1659.76099	1043.93408	283.62677	1610.17761	916.41852	288.06769	1608.43958	1045.80017	287.98056	1454.14624	975.91687	258.84149	1125.5061	991.88068	399.63165	1378.25769	976.42535	440.02991	1202.88843	972.55957	217.66316	1285.28259	1058.6825	332.51337	1408.85095	817.36328	314.27933	1210.20911	744.77423	305.21362	1097.71179	732.93732	359.25064	957.09198	711.31677	452.56271	868.42468	752.2301	394.29233	843.60321	719.76917	459.70361	781.58496	715.53333	351.11063	1415.44202	1136.83044	290.05673	1230.78674	1234.66565	285.29132	1110.81091	1257.00574	305.47296	994.92706	1284.45984	379.90762	861.10321	1265.24414	322.98975	859.50116	1301.89941	365.5282	787.2464	1310.7207	435.00583	965.39233	882.84808	437.39661	973.65533	1102.005	277.09555	990.50159	912.04767	286.17523	999.11169	1080.20288	427.84457	651.7395	830.79071	475.64548	496.56528	853.70752	316.18283	310.03571	854.94324	206.82402	175.80199	886.84747	165.72401	185.33482	933.33344	299.4584	66.29704	885.04413	390.32053	633.80365	1143.2821	397.51306	509.25494	1112.70544	329.29492	248.67969	1096.33704	299.07224	69.6524	1036.18152	259.03088	48.60557	990.44464	451.13556	31.01588	1042.56409	316.33548	1704.9856	972.10822	NaN	NaN	NaN	NaN	NaN	NaN	NaN	NaN	NaN	NaN	NaN	NaN	NaN	NaN	NaN
94	0.93	427.88623	1666.1864	911.83075	430.88239	1660.10767	1043.62341	295.72275	1610.14124	916.49463	300.28046	1608.9314	1045.7771	300.16928	1454.34387	976.29773	270.78265	1125.66821	992.59509	411.66217	1378.422	976.96674	451.93909	1202.98279	973.5755	229.95815	1285.58301	1059.56555	344.59674	1408.57654	817.91321	324.94934	1209.85071	745.76294	314.63074	1097.27295	734.31421	364.07523	954.86578	712.29639	454.10037	862.18329	752.23999	394.38507	839.90131	720.33655	456.94574	775.00531	715.72528	363.22363	1415.94568	1137.32642	303.30692	1231.25586	1235.57166	299.51868	1111.47119	1258.32153	322.94803	996.2597	1285.46472	401.43253	865.01245	1265.20349	344.89151	861.54822	1302.32385	389.89362	790.70673	1310.6106	447.44485	965.98273	884.20557	448.27328	973.21704	1103.18335	289.20175	990.92395	912.26959	297.34161	999.13904	1080.45093	444.05661	653.77338	830.97461	493.98297	499.22824	854.57452	341.60565	306.0054	856.18323	238.75163	166.61394	888.37537	197.4567	173.86734	935.23346	336.95953	62.33379	885.30365	397.32339	633.48651	1143.30542	402.35284	508.54886	1113.50696	331.4566	248.77979	1096.42664	299.37677	70.08703	1036.06885	258.55725	49.87484	990.16992	451.29279	30.93974	1042.6665	328.55154	1705.14331	971.75867	NaN	NaN	NaN	NaN	NaN	NaN	NaN	NaN	NaN	NaN	NaN	NaN	NaN	NaN	NaN
95	0.94	439.93481	1665.85437	911.52429	442.99484	1660.20996	1043.16394	307.80914	1609.82141	916.49292	312.4624	1609.15808	1045.83057	312.24457	1454.48035	976.93268	282.51361	1125.6427	993.27008	423.54431	1378.25745	977.62384	463.80463	1202.85657	974.58649	241.71201	1285.70471	1060.6488	356.82382	1408.15686	818.32703	335.75766	1209.26013	746.68933	324.34851	1096.68176	735.50702	368.79706	952.5451	713.22437	455.20435	856.0589	752.41492	394.56415	836.36426	720.87689	454.03625	768.71436	715.80603	375.20346	1416.21118	1137.84753	316.21176	1231.58752	1236.81067	313.54663	1111.88672	1259.65479	340.34406	997.53723	1286.44775	422.44589	868.91388	1265.03723	366.70471	863.60559	1302.61584	414.20648	794.28699	1310.31238	459.78152	966.28455	885.37524	459.22888	972.67554	1104.17773	301.41418	990.95258	912.44165	308.35385	998.95013	1080.68188	459.96121	655.47284	831.06824	511.76968	501.521	855.34015	367.22842	301.35205	857.16406	271.53214	156.93488	889.87878	230.03409	161.98773	936.9613	374.95023	58.26055	885.83844	404.57251	633.04681	1143.40015	407.44547	507.91922	1114.18323	333.58279	248.89166	1096.50439	299.46606	70.73999	1036.36963	259.95081	49.70067	989.69641	451.39371	30.83086	1042.82788	340.67014	1705.09534	971.32953	NaN	NaN	NaN	NaN	NaN	NaN	NaN	NaN	NaN	NaN	NaN	NaN	NaN	NaN	NaN
96	0.95	451.96683	1665.32104	911.1142	455.18582	1660.18115	1042.81128	319.8273	1609.28455	916.59534	324.8374	1609.0979	1045.91199	324.2753	1454.06848	977.47717	294.33829	1125.39893	993.88312	435.52359	1377.91248	978.22198	475.64676	1202.49646	975.54694	253.65062	1285.63586	1061.30762	369.0798	1407.43652	818.76996	346.78653	1208.45435	747.69543	334.2926	1095.95728	736.65582	373.70737	950.56445	713.79688	455.96411	849.96008	752.31024	394.65738	833.13654	720.91907	450.90607	762.81366	715.93701	387.15732	1416.16565	1138.35046	329.13235	1231.64209	1237.87439	327.49475	1112.06421	1260.97656	357.56555	998.6615	1287.34058	443.91605	873.14063	1264.72571	388.37964	865.73267	1302.86926	438.44131	798.06793	1309.87097	472.07605	966.36584	886.44464	470.14319	971.99084	1105.13623	313.44846	990.72577	912.49609	319.38324	998.586	1080.76404	475.67526	656.80316	831.11414	528.94788	503.45151	856.05878	393.00519	296.17715	858.33704	305.0257	146.92865	891.47919	263.56168	149.68721	938.66168	413.82285	54.27876	886.66864	411.96017	632.47003	1143.41296	412.47672	507.3309	1114.71204	335.63385	249.06725	1096.52393	299.75903	71.2767	1036.2616	260.13873	50.59184	989.40558	451.46716	30.77586	1042.98792	352.81989	1704.74158	971.01172	NaN	NaN	NaN	NaN	NaN	NaN	NaN	NaN	NaN	NaN	NaN	NaN	NaN	NaN	NaN
97	0.96	463.99731	1664.53235	910.77863	467.43393	1659.89612	1042.46899	331.87607	1608.45081	916.67096	337.01691	1608.62695	1046.01306	336.59036	1453.49463	977.58929	305.84683	1124.9834	994.34735	447.66071	1377.40808	978.75031	487.48138	1201.90063	976.45807	265.51761	1285.20398	1062.0957	381.48795	1406.55127	819.12677	357.93784	1207.36841	748.64502	344.19254	1095.03943	737.81848	378.63361	948.15369	714.87811	456.79529	844.29602	752.5498	394.48672	830.10229	721.73016	447.729	757.31927	715.98639	399.04803	1415.86755	1138.84167	341.67316	1231.48328	1239.19568	341.22153	1112.03235	1262.31165	374.71591	999.67322	1288.20178	464.74576	877.18768	1264.41504	410.04626	867.80426	1302.87317	462.33612	801.93219	1309.3009	484.19537	966.0835	887.4826	481.10812	971.19958	1105.96619	325.60342	990.14294	912.46521	330.4769	998.00024	1080.84412	490.79599	657.66815	831.15686	545.59479	504.95599	856.65912	419.16367	290.49921	859.32666	339.38919	136.92084	892.82129	298.39349	136.96829	940.8681	453.36584	50.66957	887.73633	419.47418	631.77209	1143.37878	418.14136	506.39285	1115.27222	337.69409	249.1664	1096.50281	300.01611	71.77238	1035.99268	260.50235	51.28931	988.8736	451.33356	30.75495	1043.26172	364.90445	1704.16284	970.62848	NaN	NaN	NaN	NaN	NaN	NaN	NaN	NaN	NaN	NaN	NaN	NaN	NaN	NaN	NaN
